<svg width="1058" height="435" viewBox="0 0 1058 435" fill="none" xmlns="http://www.w3.org/2000/svg">
<rect width="1058" height="435" fill="#E5E5E5"/>
<g id="code1 1" clip-path="url(#clip0)">
<g id="clutters">
<path id="Vector" d="M643.457 221.721L705.39 159.977L643.457 98.233L662.339 79.414L743.154 159.977L662.339 240.54L643.457 221.721Z" fill="#E6E6E6"/>
<path id="Vector_2" d="M491.771 135.207H466.595V160.383H491.771V135.207Z" fill="#E6E6E6"/>
<path id="Vector_3" d="M592.979 135.207H567.803V160.383H592.979V135.207Z" fill="#E6E6E6"/>
<path id="Vector_4" d="M542.375 135.207H517.199V160.383H542.375V135.207Z" fill="#E6E6E6"/>
<path id="Vector_5" d="M432.482 221.092L370.486 159.348L432.419 97.604L413.537 78.785L332.785 159.348L413.6 239.911L432.482 221.092Z" fill="#E6E6E6"/>
<path id="Vector_6" d="M643.457 209.763L705.39 148.019L643.457 86.274L662.339 67.455L743.154 148.019L662.339 228.582L643.457 209.763Z" fill="#6C63FF"/>
<path id="Vector_7" d="M466.595 152.424H491.771V127.248H466.595L466.595 152.424ZM592.979 127.248H567.803V152.424H592.979V127.248ZM517.199 152.424H542.375V127.248H517.199V152.424Z" fill="#6C63FF"/>
<path id="Vector_8" d="M432.482 209.133L370.486 147.389L432.419 85.645L413.537 66.826L332.785 147.389L413.6 227.952L432.482 209.133Z" fill="#6C63FF"/>
<path id="Vector_9" d="M129.305 410.449L143.399 413.856L163.248 361.117L142.447 356.088L129.305 410.449Z" fill="#A0616A"/>
<path id="Vector_10" d="M122.632 423.105L126.96 405.203L154.534 411.869C159.175 412.996 163.179 415.918 165.667 419.994C168.156 424.07 168.927 428.966 167.81 433.609L167.714 434.003L122.632 423.105Z" fill="#2F2E41"/>
<path id="Vector_11" d="M191.696 420.05L206.196 420.049L213.093 364.122L191.694 364.123L191.696 420.05Z" fill="#A0616A"/>
<path id="Vector_12" d="M188.183 415.501L216.552 415.5H216.553C221.33 415.5 225.911 417.398 229.289 420.776C232.667 424.153 234.565 428.735 234.565 433.512V433.917L188.184 433.919L188.183 415.501Z" fill="#2F2E41"/>
<path id="Vector_13" d="M188.294 400.697L190.677 313.69L187.466 278.409L181.201 305.56L153.821 394.845L130.218 388.634L157.554 292.363L151.617 230.615L168.674 219.65L168.905 219.692L227.183 230.434L213.105 398.217L188.294 400.697Z" fill="#2F2E41"/>
<path id="Vector_14" d="M211.359 242.547C206.665 242.547 201.177 241.036 195.067 236.723C175.516 222.924 152.204 237.768 151.971 237.918L151.024 238.534L151.057 237.405C151.081 236.602 153.422 156.694 153.422 130.981C153.422 104.415 170.754 85.0188 176.067 79.707C181.281 74.4924 185.668 74.6078 191.221 74.7522C192.178 74.7765 193.176 74.803 194.225 74.803C201.483 74.803 208.539 81.7756 208.836 82.0724L208.977 82.2145L209.004 82.4131L229.142 234.044L228.988 234.24C228.895 234.359 222.282 242.547 211.359 242.547Z" fill="#CCCCCC"/>
<path id="Vector_15" d="M222.796 50.7365C230.491 36.6597 225.318 19.0101 211.241 11.315C197.164 3.61991 179.514 8.79332 171.819 22.8701C164.124 36.947 169.298 54.5966 183.374 62.2917C197.451 69.9868 215.101 64.8133 222.796 50.7365Z" fill="#A0616A"/>
<path id="Vector_16" d="M193.593 47.7471C197.076 48.2002 199.702 44.6374 200.921 41.3441C202.139 38.0507 203.067 34.2165 206.095 32.4375C210.231 30.007 215.523 32.9302 220.253 32.1283C225.594 31.2227 229.067 25.5617 229.339 20.1508C229.612 14.7399 227.458 9.53569 225.346 4.54686L224.608 10.7469C224.707 8.64553 224.264 6.55404 223.324 4.67244C222.383 2.79084 220.975 1.18207 219.235 1.52588e-05L220.186 9.09753C219.984 7.84239 219.535 6.63957 218.867 5.55807C218.199 4.47658 217.323 3.53771 216.291 2.79536C215.259 2.05302 214.091 1.52181 212.853 1.23222C211.615 0.942632 210.332 0.900358 209.077 1.10783L209.227 6.52849C203.058 5.79487 196.834 5.06022 190.646 5.61913C184.459 6.17804 178.228 8.13579 173.538 12.2109C166.523 18.3066 163.961 28.344 164.821 37.5977C165.681 46.8515 169.501 55.5447 173.482 63.9424C174.484 66.0552 175.869 68.4395 178.192 68.7086C180.279 68.9504 182.189 67.2059 182.837 65.2076C183.337 63.1572 183.318 61.0146 182.781 58.9736C182.194 55.8545 181.454 52.6664 182.006 49.5409C182.558 46.4154 184.806 43.3268 187.957 42.9438C191.108 42.5607 194.332 46.1621 192.817 48.9511L193.593 47.7471Z" fill="#2F2E41"/>
<path id="Vector_17" d="M831.194 421.744H818.934L813.1 374.457H831.194V421.744Z" fill="#FFB8B8"/>
<path id="Vector_18" d="M834.321 433.628H794.79V433.128C794.795 429.049 796.418 425.138 799.302 422.253C802.187 419.369 806.098 417.746 810.177 417.742H834.321L834.321 433.628Z" fill="#2F2E41"/>
<path id="Vector_19" d="M946.719 411.631L935.037 415.353L915.121 372.069L932.362 366.575L946.719 411.631Z" fill="#FFB8B8"/>
<path id="Vector_20" d="M915.641 434.006L915.49 433.53C914.256 429.641 914.614 425.422 916.487 421.798C918.359 418.174 921.593 415.441 925.479 414.198L948.483 406.868L953.306 422.004L915.641 434.006Z" fill="#2F2E41"/>
<path id="Vector_21" d="M884.667 94.4374C898.232 94.4374 909.228 83.441 909.228 69.8763C909.228 56.3117 898.232 45.3153 884.667 45.3153C871.102 45.3153 860.106 56.3117 860.106 69.8763C860.106 83.441 871.102 94.4374 884.667 94.4374Z" fill="#FFB8B8"/>
<path id="Vector_22" d="M895.694 65.3243C895.834 55.418 891.688 45.607 885.278 40.6744C882.257 38.2808 878.499 37.0097 874.645 37.0778C870.791 37.1459 867.08 38.549 864.146 41.0478C857.835 46.2053 853.883 56.1593 854.217 66.0573C868.358 66.0975 882.499 66.1377 895.694 65.3243Z" fill="#2F2E41"/>
<path id="Vector_23" d="M838.193 406.523L837.702 406.475C827.036 405.428 816.007 404.347 805.584 404.223L805.017 404.216L805.094 403.655C807.564 385.769 808.611 367.175 809.623 349.193C810.623 331.437 811.656 313.077 814.064 295.639C815.083 290.97 816.075 286.356 817.065 281.759C825.25 243.716 832.982 207.783 848.941 172.213L849.092 171.877L849.458 171.921C864.432 173.733 878.821 179.196 889.973 187.304L890.189 187.461L890.179 187.728C889.963 193.253 889.741 198.964 890.07 204.167C895.132 211.2 898.486 219.315 899.866 227.869C901.247 236.424 900.616 245.182 898.024 253.45C902.415 268.125 906.955 283.295 911.587 298.26C922.836 329.098 934.475 361.011 946.407 393.361L946.603 393.891L946.052 394.02C937.468 396.035 928.612 398.114 919.876 398.92L919.546 398.951L919.389 398.659C897.11 357.198 878.992 313.634 865.3 268.602C862.319 277.695 858.024 285.902 853.863 293.851C849.884 301.082 846.382 308.565 843.381 316.253C841.539 331.374 841.051 347.757 840.579 363.6C840.132 378.579 839.711 392.728 838.248 406.032L838.193 406.523Z" fill="#2F2E41"/>
<path id="Vector_24" d="M876.282 41.1287C886.928 38.835 898.704 41.0172 907.065 48.2001C915.425 55.383 919.671 67.8092 916.236 78.4662C912.802 89.1232 901.14 96.6214 890.597 93.8694C893.617 85.357 890.218 74.9059 882.834 70.0027C874.078 64.1879 871.668 50.3056 876.282 41.1287Z" fill="#2F2E41"/>
<path id="Vector_25" d="M889.207 188.372L888.818 188.195C875.237 181.998 861.92 177.244 849.442 172.906L849.06 172.824L849.059 171.714L849.307 171.801C849.359 171.685 849.418 171.555 849.477 171.424C849.648 171.047 849.764 170.79 849.863 170.62L849.86 170.619C850.9 168.499 851.727 166.451 852.527 164.47C853.352 162.426 854.204 160.315 855.304 158.081C852.636 155.406 850.81 152.008 850.05 148.307C849.29 144.606 849.63 140.763 851.028 137.253C853.784 130.72 860.812 125.632 868.196 124.788C870.902 117.339 876.931 101.688 876.931 101.688C876.931 101.688 889.609 101.34 894.708 100.693L894.794 100.682L894.878 100.701C906.009 103.14 915.302 113.672 917.476 126.314C919.311 136.984 916.524 149.189 909.629 160.68C906.091 166.3 902.179 171.675 897.919 176.769C894.813 180.653 891.879 184.321 889.443 188.015L889.207 188.372Z" fill="#CCCCCC"/>
<path id="Vector_26" d="M913.791 55.6834C906.338 54.571 900.487 46.9529 901.334 39.4656C902.181 31.9784 909.587 25.8602 917.099 26.441C924.612 27.0217 930.989 34.2053 930.676 41.7339C930.362 49.2624 923.306 57.1037 913.791 55.6834Z" fill="#2F2E41"/>
<path id="Vector_27" d="M912.627 50.8285C905.175 49.7161 899.324 42.098 900.171 34.6108C900.54 32.0641 901.549 29.6524 903.102 27.6006C904.655 25.5487 906.702 23.9235 909.053 22.8764C903.043 24.1918 897.87 29.4289 897.171 35.6108C896.324 43.098 902.175 50.7161 909.627 51.8285C912.404 52.2643 915.248 51.8665 917.799 50.6855C916.098 51.0428 914.346 51.0912 912.627 50.8285V50.8285Z" fill="#2F2E41"/>
<path id="Vector_28" d="M382 434.745H1C0.734784 434.745 0.480429 434.64 0.292892 434.453C0.105356 434.265 0 434.011 0 433.745C0 433.48 0.105356 433.226 0.292892 433.038C0.480429 432.851 0.734784 432.745 1 432.745H382C382.265 432.745 382.52 432.851 382.707 433.038C382.895 433.226 383 433.48 383 433.745C383 434.011 382.895 434.265 382.707 434.453C382.52 434.64 382.265 434.745 382 434.745Z" fill="#3F3D56"/>
<path id="Vector_29" d="M1057 434.745H676C675.735 434.745 675.48 434.64 675.293 434.453C675.105 434.265 675 434.011 675 433.745C675 433.48 675.105 433.226 675.293 433.038C675.48 432.851 675.735 432.745 676 432.745H1057C1057.27 432.745 1057.52 432.851 1057.71 433.038C1057.89 433.226 1058 433.48 1058 433.745C1058 434.011 1057.89 434.265 1057.71 434.453C1057.52 434.64 1057.27 434.745 1057 434.745Z" fill="#3F3D56"/>
</g>
<g id="manHand">
<path id="Vector_30" d="M241.775 266.826C240.401 265.761 239.277 264.408 238.482 262.862C237.688 261.315 237.242 259.613 237.176 257.876C237.11 256.138 237.426 254.408 238.101 252.806C238.777 251.204 239.795 249.769 241.085 248.603L224.589 209.692L246.188 213.668L258.542 250.009C260.357 252.305 261.267 255.188 261.098 258.11C260.93 261.033 259.695 263.792 257.629 265.865C255.562 267.938 252.807 269.181 249.885 269.358C246.963 269.535 244.077 268.634 241.775 266.826V266.826Z" fill="#A0616A"/>
<path id="Vector_31" d="M237.103 244.677L207.295 183.87L194.225 138.105L194.236 98.3471C194.265 98.19 197.338 82.725 208.726 83.7945C219.052 84.7947 224.614 89.8442 227.323 100.679C229.624 109.883 226.477 137.189 226.172 139.765C228.17 144.503 258.148 215.93 253.185 224.531C253 224.866 252.729 225.147 252.401 225.344L257.713 236.559L237.103 244.677Z" fill="#CCCCCC"/>
</g>
<g id="girlBackHand">
<path id="Vector_32" d="M912.591 262.953C911.622 261.848 910.906 260.543 910.495 259.132C910.085 257.72 909.988 256.236 910.213 254.783C910.438 253.33 910.979 251.945 911.797 250.723C912.615 249.502 913.692 248.475 914.95 247.715L907.516 212.762L924.806 219.536L929.214 251.69C930.352 253.888 930.643 256.427 930.033 258.826C929.423 261.225 927.955 263.316 925.906 264.705C923.857 266.093 921.369 266.682 918.916 266.359C916.462 266.036 914.211 264.824 912.591 262.953V262.953Z" fill="#FFB8B8"/>
<path id="Vector_33" d="M910.628 235.681L910.535 235.337C901.188 200.766 891.526 165.029 879.731 126.118L879.653 125.863L879.914 125.711C886.488 121.875 896.37 122.13 902.9 126.305C905.855 128.209 908.155 130.975 909.486 134.228C910.817 137.482 911.117 141.067 910.343 144.496L918.946 189.354C922.444 204.017 926.064 219.194 929.524 234.159L929.622 234.584L929.086 234.618C922.787 235.018 916.279 235.433 911.065 235.661L910.628 235.681Z" fill="#CCCCCC"/>
</g>
<g id="girlFrontHand">
<path id="Vector_34" d="M768.069 182.806C768.788 181.524 769.779 180.415 770.973 179.557C772.167 178.699 773.534 178.114 774.979 177.842C776.424 177.57 777.911 177.618 779.335 177.983C780.759 178.347 782.086 179.02 783.222 179.953L813.701 161.298L813.074 179.857L784.227 194.727C782.533 196.532 780.236 197.652 777.771 197.876C775.306 198.101 772.845 197.413 770.853 195.944C768.861 194.474 767.478 192.325 766.965 189.904C766.451 187.483 766.844 184.957 768.069 182.806V182.806Z" fill="#FFB8B8"/>
<path id="Vector_35" d="M793.128 171.868L793.421 171.666C822.903 151.335 853.379 130.318 886.136 106.232L886.351 106.074L886.581 106.269C892.389 111.19 895.44 120.592 893.68 128.139C892.87 131.56 891.028 134.65 888.403 136.989C885.779 139.329 882.499 140.805 879.008 141.219L839.58 164.276C826.92 172.46 813.816 180.929 800.859 189.178L800.491 189.412L800.281 188.918C797.804 183.112 795.245 177.114 793.292 172.274L793.128 171.868Z" fill="#CCCCCC"/>
</g>
</g>
<defs>
<clipPath id="clip0">
<rect width="1058" height="434.745" fill="white"/>
</clipPath>
</defs>
</svg>
